<svg width="20" height="20" viewBox="0 0 20 20" fill="none" xmlns="http://www.w3.org/2000/svg">
<g clip-path="url(#clip0)">
<path d="M9.16643 19.1536C4.11242 19.1536 0 15.0414 0 9.98735C0 4.93334 4.11242 0.820923 9.16643 0.820923C10.9239 0.820923 12.6337 1.3217 14.1112 2.27C14.4013 2.45677 14.4862 2.84341 14.2995 3.13424C14.1121 3.42506 13.7262 3.50913 13.4354 3.32252C12.1604 2.5033 10.6839 2.07088 9.16643 2.07088C4.80149 2.07088 1.24996 5.62241 1.24996 9.98735C1.24996 14.3521 4.80149 17.9037 9.16643 17.9037C13.5312 17.9037 17.0828 14.3521 17.0828 9.98735C17.0828 9.72644 17.0702 9.46811 17.0461 9.21406C17.0129 8.86984 17.2645 8.56482 17.6078 8.53156C17.9528 8.49982 18.2569 8.74991 18.2903 9.09322C18.3185 9.3874 18.3327 9.6857 18.3327 9.98735C18.3327 15.0414 14.2204 19.1536 9.16643 19.1536Z" fill="#FFC531"/>
<path d="M10.2066 12.0706C10.0467 12.0706 9.88663 12.0097 9.76502 11.8874L6.01513 8.13749C5.771 7.89321 5.771 7.49741 6.01513 7.25327C6.25926 7.00914 6.65507 7.00914 6.8992 7.25327L10.2075 10.5616L18.9313 1.83764C19.1756 1.59351 19.5714 1.59351 19.8155 1.83764C20.0597 2.08177 20.0597 2.47757 19.8155 2.72171L10.6491 11.8881C10.5266 12.0097 10.3667 12.0706 10.2066 12.0706Z" fill="#FFC531"/>
</g>
<defs>
<clipPath id="clip0">
<rect width="20" height="20" fill="white"/>
</clipPath>
</defs>
</svg>
