<svg width="30" height="30" viewBox="0 0 30 30" fill="none" xmlns="http://www.w3.org/2000/svg">
<path d="M21.8792 0H8.12071C3.64288 0 0 3.64288 0 8.12071V21.8795C0 26.3571 3.64288 29.9999 8.12071 29.9999H21.8795C26.3571 29.9999 29.9999 26.3571 29.9999 21.8795V8.12071C29.9999 3.64288 26.3571 0 21.8792 0V0ZM28.2412 21.8795C28.2412 25.3873 25.3873 28.2412 21.8792 28.2412H8.12071C4.61265 28.2412 1.75872 25.3873 1.75872 21.8795V8.12071C1.75872 4.61265 4.61265 1.75872 8.12071 1.75872H21.8795C25.3873 1.75872 28.2412 4.61265 28.2412 8.12071V21.8795Z" fill="white"/>
<path d="M14.9998 6.79712C10.4766 6.79712 6.79688 10.4768 6.79688 15C6.79688 19.5232 10.4766 23.2029 14.9998 23.2029C19.5229 23.2029 23.2026 19.5232 23.2026 15C23.2026 10.4768 19.5229 6.79712 14.9998 6.79712V6.79712ZM14.9998 21.4442C11.4466 21.4442 8.5556 18.5534 8.5556 15C8.5556 11.4468 11.4466 8.55584 14.9998 8.55584C18.5531 8.55584 21.4439 11.4468 21.4439 15C21.4439 18.5534 18.5531 21.4442 14.9998 21.4442V21.4442Z" fill="white"/>
<path d="M23.3985 3.88379C22.0618 3.88379 20.9746 4.9712 20.9746 6.30764C20.9746 7.64431 22.0618 8.73173 23.3985 8.73173C24.7351 8.73173 25.8225 7.64431 25.8225 6.30764C25.8225 4.97098 24.7351 3.88379 23.3985 3.88379ZM23.3985 6.97277C23.0318 6.97277 22.7333 6.67431 22.7333 6.30764C22.7333 5.94075 23.0318 5.64251 23.3985 5.64251C23.7654 5.64251 24.0638 5.94075 24.0638 6.30764C24.0638 6.67431 23.7654 6.97277 23.3985 6.97277Z" fill="white"/>
</svg>
