<svg width="30" height="30" viewBox="0 0 30 30" fill="none" xmlns="http://www.w3.org/2000/svg">
<g clip-path="url(#clip0)">
<path d="M29.7524 3.95055C29.4585 3.59188 28.9712 3.45887 28.538 3.61848L1.01905 13.5826C0.469272 13.7828 0.0833774 14.2683 0.0117374 14.8497C-0.059216 15.4283 0.195301 15.9897 0.672748 16.3128L4.60631 19.0033C4.9874 19.264 5.47744 19.292 5.88553 19.0762L14.4182 14.5678L7.76809 19.5431C7.45589 19.7768 7.26935 20.1495 7.26935 20.5398V25.1484C7.26935 25.6238 7.52959 26.0593 7.94844 26.2854C8.36798 26.5116 8.87473 26.4891 9.27321 26.2258L12.2617 24.2396L15.2006 26.2474C15.4581 26.4242 15.7648 26.5173 16.0742 26.5173C16.1788 26.5173 16.2839 26.5065 16.3873 26.4849C16.8 26.3987 17.1651 26.1432 17.3891 25.7841L29.8396 5.2137C30.082 4.81765 30.0472 4.31083 29.7524 3.95055ZM16.0085 24.6666L12.9651 22.5873C12.7534 22.4423 12.5094 22.3699 12.2656 22.3699C12.0271 22.3699 11.7884 22.4393 11.5794 22.5783L9.02808 24.274V20.7999L20.7709 12.0145C21.2952 11.6221 21.4273 10.908 21.0778 10.3534C20.7281 9.79892 20.0279 9.61155 19.4491 9.91748L5.34079 17.3718L2.01377 15.0962L27.3549 5.92072L16.0085 24.6666Z" fill="#FFC531"/>
</g>
<defs>
<clipPath id="clip0">
<rect width="30" height="30" fill="white"/>
</clipPath>
</defs>
</svg>
