<svg width="65" height="65" viewBox="0 0 65 65" fill="none" xmlns="http://www.w3.org/2000/svg">
<path d="M2.0312 20.3124H62.9686C64.0899 20.3124 64.9998 19.4023 64.9998 18.2812C64.9998 17.1599 64.0898 16.25 62.9686 16.25H2.0312C0.909902 16.25 0 17.1601 0 18.2812C0 19.4023 0.910071 20.3124 2.0312 20.3124Z" fill="white"/>
<path d="M62.9686 30.4688H2.0312C0.909902 30.4688 0 31.3788 0 32.4999C0 33.6211 0.910071 34.5311 2.0312 34.5311H62.9686C64.0899 34.5311 64.9998 33.6211 64.9998 32.4999C64.9998 31.3788 64.0899 30.4688 62.9686 30.4688Z" fill="white"/>
<path d="M62.9687 44.6875H22.3437C21.2224 44.6875 20.3125 45.5976 20.3125 46.7187C20.3125 47.84 21.2226 48.7499 22.3437 48.7499H62.9687C64.09 48.7499 64.9999 47.8398 64.9999 46.7187C65 45.5974 64.09 44.6875 62.9687 44.6875Z" fill="white"/>
</svg>
