<svg width="30" height="30" viewBox="0 0 30 30" fill="none" xmlns="http://www.w3.org/2000/svg">
<g clip-path="url(#clip0)">
<path d="M25.7389 4.26109C22.991 1.51314 19.3382 0 15.4518 0C15.4516 0 15.4507 0 15.4504 0C13.5283 0.000228882 11.6551 0.372391 9.88335 1.10641C8.11135 1.84044 6.52382 2.90176 5.16449 4.26109C2.41677 7.00882 0.903629 10.6622 0.903629 14.5482C0.903629 16.8656 1.46279 19.1686 2.52228 21.2206L0.0769077 28.2065C-0.0954403 28.6993 0.0265537 29.2348 0.395969 29.604C0.654377 29.8627 0.994495 30 1.34423 30C1.49414 30 1.64566 29.9748 1.79352 29.9231L8.77945 27.478C10.8314 28.5374 13.1344 29.0966 15.4518 29.0966C19.3378 29.0966 22.991 27.5832 25.7389 24.8355C28.4866 22.0878 30 18.4344 30 14.5484C30 10.6622 28.4869 7.00882 25.7389 4.26109ZM24.4947 23.5913C22.0793 26.0069 18.8676 27.337 15.4518 27.337C13.3621 27.337 11.2862 26.8201 9.44825 25.8419C9.11499 25.6647 8.72109 25.6343 8.36747 25.7581L2.02057 27.9794L4.2421 21.6325C4.36592 21.2785 4.33525 20.8846 4.1581 20.5515C3.18009 18.7141 2.66304 16.6381 2.66304 14.5482C2.66304 11.1324 3.9933 7.92068 6.4087 5.50529C8.82386 3.09013 12.0351 1.75987 15.4507 1.75941H15.4518C18.8679 1.75941 22.0793 3.08968 24.4947 5.50529C26.9103 7.92068 28.2406 11.1321 28.2406 14.5482C28.2406 17.9642 26.9103 21.1759 24.4947 23.5913Z" fill="white"/>
<path d="M20.8576 15.8477C20.1884 15.1784 19.0994 15.1784 18.4301 15.8477L17.6981 16.5796C15.8806 15.5893 14.4098 14.1185 13.4192 12.3009L14.1512 11.569C14.8206 10.8997 14.8206 9.81068 14.1512 9.14143L12.1787 7.16893C11.5094 6.49968 10.4204 6.49968 9.75114 7.16893L8.17322 8.74684C7.26937 9.6507 7.22428 11.2046 8.0462 13.1224C8.75985 14.7875 10.0658 16.6176 11.7236 18.2754C13.3814 19.9332 15.2116 21.2392 16.8767 21.9529C17.7879 22.3433 18.6166 22.5381 19.3328 22.5381C20.1241 22.5381 20.7777 22.3003 21.2522 21.8258L22.8301 20.2477V20.2479C23.1545 19.9236 23.333 19.4926 23.333 19.0342C23.333 18.5755 23.1545 18.1445 22.8301 17.8204L20.8576 15.8477ZM20.008 20.5816C19.7501 20.8396 18.9568 20.93 17.57 20.3358C16.1056 19.7082 14.4711 18.5345 12.9678 17.0312C11.4645 15.5279 10.2911 13.8937 9.66347 12.4293C9.06907 11.0425 9.15948 10.249 9.41743 9.99104L10.9651 8.44334L12.8767 10.3552L11.9605 11.2716C11.5463 11.6859 11.4462 12.3142 11.712 12.8351C12.9166 15.1972 14.8019 17.0825 17.1639 18.2871C17.6851 18.5528 18.3134 18.453 18.7277 18.0385L19.6439 17.1223L21.5557 19.0342L20.008 20.5816Z" fill="white"/>
</g>
<defs>
<clipPath id="clip0">
<rect width="30" height="30" fill="white"/>
</clipPath>
</defs>
</svg>
